<svg xmlns="http://www.w3.org/2000/svg" width="32" height="32" viewBox="0 0 512 512">
  <g>
    <path fill="#585a57" d="M256 0C114.609 0 0 114.609 0 256c0 141.391 114.609 256 256 256 141.391 0 256-114.609 256-256C512 114.609 397.391 0 256 0zm0 472c-119.297 0-216-96.703-216-216S136.703 40 256 40s216 96.703 216 216-96.703 216-216 216z"/>
    <path fill="#585a57" d="M353.661 237.879l-154.174-89.594c-16.844-9.969-32.987-1.938-32.987 17.844v179.766c0 19.75 16.143 27.797 32.987 17.812l152.956-89.578c16.905-9.969 18.109-26.281 1.218-36.25z"/>
  </g>
</svg>