<svg xmlns="http://www.w3.org/2000/svg" width="32" height="32" viewBox="235.661 638.266 643.467 643.468">
  <g>
    <path fill="#ffffff9c" d="M557.395 638.266c-177.689 0-321.734 144.045-321.734 321.734s144.045 321.734 321.734 321.734S879.128 1137.689 879.128 960 735.083 638.266 557.395 638.266zm0 607.47c-157.807 0-285.736-127.928-285.736-285.736s127.928-285.736 285.736-285.736S843.13 802.193 843.13 960s-127.928 285.736-285.735 285.736z"/>
    <g>
      <g>
        <path fill="#ffffff9c" d="M417.165 871.526c4.701 0 9.4 1.787 12.993 5.38l127.226 127.235L684.61 876.906c7.177-7.177 18.802-7.177 25.977 0 7.177 7.177 7.177 18.791 0 25.96l-140.209 140.228c-7.177 7.177-18.81 7.177-25.977 0l-140.2-140.228c-7.177-7.177-7.177-18.783 0-25.96 3.565-3.583 8.255-5.38 12.964-5.38z"/>
      </g>
    </g>
  </g>
</svg>